<mxfile host="app.diagrams.net" agent="Mozilla/5.0 (Linux; Android 10; K) AppleWebKit/537.36 (KHTML, like Gecko) Chrome/132.0.0.0 Safari/537.36" version="26.0.10">
  <diagram name="Page-1" id="zkAXW22E6kWiDa5VIobu">
    <mxGraphModel dx="965" dy="851" grid="0" gridSize="10" guides="1" tooltips="1" connect="1" arrows="1" fold="1" page="0" pageScale="1" pageWidth="850" pageHeight="1100" math="0" shadow="0">
      <root>
        <mxCell id="0" />
        <mxCell id="1" parent="0" />
        <mxCell id="xkvlEjj2k6D8jLxlaUt7-3" value="" style="edgeStyle=none;curved=1;rounded=0;orthogonalLoop=1;jettySize=auto;html=1;fontSize=12;startSize=8;endSize=8;" parent="1" source="xkvlEjj2k6D8jLxlaUt7-1" target="xkvlEjj2k6D8jLxlaUt7-2" edge="1">
          <mxGeometry relative="1" as="geometry" />
        </mxCell>
        <object label="Import Data&lt;div&gt;Export Data&lt;/div&gt;" Imp_Data="" id="xkvlEjj2k6D8jLxlaUt7-1">
          <mxCell style="shape=process;whiteSpace=wrap;html=1;backgroundOutline=1;" parent="1" vertex="1">
            <mxGeometry x="36" y="-5" width="112" height="52" as="geometry" />
          </mxCell>
        </object>
        <mxCell id="xkvlEjj2k6D8jLxlaUt7-2" value="Pandas Dataframe" style="shape=cylinder3;whiteSpace=wrap;html=1;boundedLbl=1;backgroundOutline=1;size=15;" parent="1" vertex="1">
          <mxGeometry x="50" y="100" width="84" height="80" as="geometry" />
        </mxCell>
        <mxCell id="xkvlEjj2k6D8jLxlaUt7-6" value="" style="edgeStyle=none;curved=1;rounded=0;orthogonalLoop=1;jettySize=auto;html=1;fontSize=12;startSize=8;endSize=8;" parent="1" source="xkvlEjj2k6D8jLxlaUt7-4" target="xkvlEjj2k6D8jLxlaUt7-5" edge="1">
          <mxGeometry relative="1" as="geometry" />
        </mxCell>
        <object label="Companies Data&lt;div&gt;HSCODE Data&lt;/div&gt;&lt;div&gt;Incorterm&lt;/div&gt;" Imp_Data="" id="xkvlEjj2k6D8jLxlaUt7-4">
          <mxCell style="shape=process;whiteSpace=wrap;html=1;backgroundOutline=1;" parent="1" vertex="1">
            <mxGeometry x="223" y="-5" width="120" height="52" as="geometry" />
          </mxCell>
        </object>
        <mxCell id="xkvlEjj2k6D8jLxlaUt7-7" style="edgeStyle=none;curved=1;rounded=0;orthogonalLoop=1;jettySize=auto;html=1;fontSize=12;startSize=8;endSize=8;entryX=0;entryY=0.5;entryDx=0;entryDy=0;entryPerimeter=0;" parent="1" source="xkvlEjj2k6D8jLxlaUt7-2" target="xkvlEjj2k6D8jLxlaUt7-5" edge="1">
          <mxGeometry relative="1" as="geometry">
            <mxPoint x="260" y="175" as="targetPoint" />
          </mxGeometry>
        </mxCell>
        <mxCell id="xkvlEjj2k6D8jLxlaUt7-5" value="Vectorize Data" style="shape=cylinder3;whiteSpace=wrap;html=1;boundedLbl=1;backgroundOutline=1;size=15;" parent="1" vertex="1">
          <mxGeometry x="231" y="104" width="99" height="80" as="geometry" />
        </mxCell>
        <mxCell id="IRRLRNYUq0DgDF-gUkcd-3" value="" style="edgeStyle=none;curved=1;rounded=0;orthogonalLoop=1;jettySize=auto;html=1;fontSize=12;startSize=8;endSize=8;" edge="1" parent="1" source="IRRLRNYUq0DgDF-gUkcd-1" target="IRRLRNYUq0DgDF-gUkcd-2">
          <mxGeometry relative="1" as="geometry" />
        </mxCell>
        <mxCell id="IRRLRNYUq0DgDF-gUkcd-1" value="Prompt" style="rounded=0;whiteSpace=wrap;html=1;" vertex="1" parent="1">
          <mxGeometry x="-33" y="306" width="120" height="60" as="geometry" />
        </mxCell>
        <mxCell id="IRRLRNYUq0DgDF-gUkcd-2" value="Choose DataFrame" style="rhombus;whiteSpace=wrap;html=1;" vertex="1" parent="1">
          <mxGeometry x="138" y="296" width="80" height="80" as="geometry" />
        </mxCell>
        <mxCell id="IRRLRNYUq0DgDF-gUkcd-24" style="edgeStyle=none;curved=1;rounded=0;orthogonalLoop=1;jettySize=auto;html=1;entryX=0;entryY=0;entryDx=0;entryDy=0;fontSize=12;startSize=8;endSize=8;exitX=1;exitY=1;exitDx=0;exitDy=0;" edge="1" parent="1" source="IRRLRNYUq0DgDF-gUkcd-9" target="IRRLRNYUq0DgDF-gUkcd-21">
          <mxGeometry relative="1" as="geometry">
            <mxPoint x="236" y="255" as="sourcePoint" />
          </mxGeometry>
        </mxCell>
        <mxCell id="IRRLRNYUq0DgDF-gUkcd-9" value="LLM query to get Data" style="rounded=1;whiteSpace=wrap;html=1;" vertex="1" parent="1">
          <mxGeometry x="129.5" y="210" width="97" height="39" as="geometry" />
        </mxCell>
        <mxCell id="IRRLRNYUq0DgDF-gUkcd-18" value="" style="endArrow=classic;html=1;rounded=0;fontSize=12;startSize=8;endSize=8;curved=1;entryX=0.5;entryY=1;entryDx=0;entryDy=0;exitX=0.5;exitY=0;exitDx=0;exitDy=0;" edge="1" parent="1" source="IRRLRNYUq0DgDF-gUkcd-2" target="IRRLRNYUq0DgDF-gUkcd-9">
          <mxGeometry width="50" height="50" relative="1" as="geometry">
            <mxPoint x="163" y="326" as="sourcePoint" />
            <mxPoint x="213" y="276" as="targetPoint" />
          </mxGeometry>
        </mxCell>
        <mxCell id="IRRLRNYUq0DgDF-gUkcd-19" style="edgeStyle=none;curved=1;rounded=0;orthogonalLoop=1;jettySize=auto;html=1;exitX=0.75;exitY=1;exitDx=0;exitDy=0;fontSize=12;startSize=8;endSize=8;" edge="1" parent="1" source="IRRLRNYUq0DgDF-gUkcd-9" target="IRRLRNYUq0DgDF-gUkcd-9">
          <mxGeometry relative="1" as="geometry" />
        </mxCell>
        <mxCell id="IRRLRNYUq0DgDF-gUkcd-20" value="" style="endArrow=classic;startArrow=classic;html=1;rounded=0;fontSize=12;startSize=8;endSize=8;curved=1;exitX=0.5;exitY=1;exitDx=0;exitDy=0;exitPerimeter=0;entryX=0;entryY=0.5;entryDx=0;entryDy=0;" edge="1" parent="1" source="xkvlEjj2k6D8jLxlaUt7-2" target="IRRLRNYUq0DgDF-gUkcd-9">
          <mxGeometry width="50" height="50" relative="1" as="geometry">
            <mxPoint x="93" y="200" as="sourcePoint" />
            <mxPoint x="128" y="221" as="targetPoint" />
          </mxGeometry>
        </mxCell>
        <mxCell id="IRRLRNYUq0DgDF-gUkcd-21" value="Answer" style="whiteSpace=wrap;html=1;" vertex="1" parent="1">
          <mxGeometry x="314" y="306" width="120" height="60" as="geometry" />
        </mxCell>
        <mxCell id="IRRLRNYUq0DgDF-gUkcd-25" value="" style="endArrow=classic;startArrow=classic;html=1;rounded=0;fontSize=12;startSize=8;endSize=8;curved=1;entryX=0.5;entryY=1;entryDx=0;entryDy=0;entryPerimeter=0;exitX=1;exitY=0.5;exitDx=0;exitDy=0;" edge="1" parent="1" source="IRRLRNYUq0DgDF-gUkcd-9" target="xkvlEjj2k6D8jLxlaUt7-5">
          <mxGeometry width="50" height="50" relative="1" as="geometry">
            <mxPoint x="226" y="215" as="sourcePoint" />
            <mxPoint x="278" y="243" as="targetPoint" />
            <Array as="points" />
          </mxGeometry>
        </mxCell>
      </root>
    </mxGraphModel>
  </diagram>
</mxfile>
